<?xml version="1.0" encoding="utf-8"?>
<!-- Generator: Adobe Illustrator 16.0.0, SVG Export Plug-In . SVG Version: 6.00 Build 0)  -->
<!DOCTYPE svg PUBLIC "-//W3C//DTD SVG 1.1//EN" "http://www.w3.org/Graphics/SVG/1.1/DTD/svg11.dtd">
<svg version="1.1" id="Layer_1" xmlns="http://www.w3.org/2000/svg" xmlns:xlink="http://www.w3.org/1999/xlink" x="0px" y="0px"
	 width="490.5px" height="131.1px" viewBox="0 0 490.5 131.1" style="enable-background:new 0 0 490.5 131.1;" xml:space="preserve"
	>
<style type="text/css">
<![CDATA[
	.st0{fill:#FFFFFF;}
]]>
</style>
<g>
	<polygon class="st0" points="166.9,80 166.9,57.1 171.5,57.1 171.5,66.4 180.7,66.4 180.7,57.1 185.3,57.1 185.3,80 180.7,80 
		180.7,70 171.5,70 171.5,80 	"/>
	<path class="st0" d="M200.4,55.6l2.7-4.8h4.5l-4.5,4.8H200.4z M206.3,71.1l-3.3-9.4h-0.1l-3.3,9.4H206.3z M191.5,80l8.9-22.9h5.2
		l9,22.9h-5.1l-2-5.2h-9.3l-2,5.2H191.5z"/>
	<g>
		<path class="st0" d="M233.5,57.5l-0.4,3.8c-1.5-0.6-3-1-4.7-1c-0.5,0-1.1,0.1-1.6,0.3c-0.6,0.2-1,0.5-1.4,1
			c-0.4,0.5-0.6,1.1-0.6,1.9c0,0.8,0.4,1.4,1,1.8c0.7,0.4,1.5,0.8,2.5,1.2c1,0.4,2,0.8,3,1.3c1,0.5,1.8,1.2,2.5,2.1
			c0.7,0.9,1,2.1,1,3.6c0,1.7-0.4,3-1.2,4c-0.8,1-1.8,1.8-3.1,2.2c-1.3,0.5-2.7,0.7-4.3,0.7c-0.8,0-1.5,0-2.1-0.1
			c-0.6-0.1-1.2-0.2-1.8-0.3c-0.6-0.1-1.2-0.3-2-0.5l0.4-4.1c1.6,0.9,3.3,1.4,5.2,1.4c0.6,0,1.2-0.1,1.8-0.3c0.6-0.2,1.1-0.5,1.6-1
			c0.4-0.4,0.6-1,0.7-1.7c0-0.9-0.4-1.5-1-2c-0.7-0.5-1.5-0.9-2.5-1.3c-1-0.4-2-0.8-3-1.3c-1-0.5-1.8-1.2-2.5-2c-0.7-0.9-1-2-1-3.5
			c0-1.7,0.4-3.1,1.2-4.1c0.8-1,1.7-1.8,3-2.2c1.2-0.5,2.5-0.7,3.9-0.7C230,56.7,231.9,57,233.5,57.5"/>
	</g>
	<polygon class="st0" points="242.3,80 242.3,57.1 246.9,57.1 246.9,67 255.1,57.1 260.8,57.1 251.4,67.9 261.2,80 255.2,80 
		246.9,69.4 246.9,69.4 246.9,80 	"/>
	<g>
		<path class="st0" d="M274.9,55.6l2.7-4.8h4.5l-4.5,4.8H274.9z M266.3,68.5c0-2.4,0.4-4.4,1.3-6.2c0.9-1.8,2.1-3.1,3.8-4.1
			c1.7-1,3.7-1.5,6.1-1.5c2.4,0,4.4,0.5,6.1,1.5c1.7,1,2.9,2.4,3.8,4.1c0.9,1.8,1.3,3.8,1.3,6.1c0,2.3-0.4,4.4-1.3,6.2
			c-0.9,1.8-2.1,3.2-3.8,4.2c-1.7,1-3.7,1.5-6.1,1.5c-2.4,0-4.5-0.5-6.2-1.5c-1.7-1-2.9-2.4-3.8-4.2
			C266.8,72.9,266.3,70.8,266.3,68.5 M271.1,68.5c0,1.4,0.2,2.7,0.6,4c0.4,1.3,1.1,2.3,2.1,3.1c0.9,0.8,2.2,1.2,3.7,1.2
			c1.6,0,2.8-0.4,3.8-1.2c0.9-0.8,1.6-1.8,2.1-3.1c0.4-1.3,0.6-2.6,0.6-4c0-1.4-0.2-2.7-0.7-3.9c-0.4-1.2-1.1-2.2-2.1-3
			c-0.9-0.8-2.2-1.2-3.7-1.2c-1.5,0-2.7,0.4-3.7,1.2c-0.9,0.8-1.6,1.8-2.1,3C271.3,65.8,271.1,67.1,271.1,68.5"/>
	</g>
	<polygon class="st0" points="296.2,80 296.2,57.1 300.8,57.1 300.8,76.4 309.7,76.4 309.7,80 	"/>
	<rect x="315.5" y="57.1" class="st0" width="4.6" height="22.9"/>
	<path class="st0" d="M339.9,55.6l2.7-4.8h4.5l-4.5,4.8H339.9z M340.3,57.1h4.6V80h-4.6V57.1z"/>
	<g>
		<path class="st0" d="M365.7,57.5l-0.4,3.8c-1.5-0.6-3-1-4.7-1c-0.5,0-1.1,0.1-1.6,0.3c-0.5,0.2-1,0.5-1.4,1
			c-0.4,0.5-0.6,1.1-0.6,1.9c0,0.8,0.4,1.4,1,1.8c0.7,0.4,1.5,0.8,2.5,1.2c1,0.4,2,0.8,3,1.3c1,0.5,1.8,1.2,2.5,2.1
			c0.7,0.9,1,2.1,1,3.6c0,1.7-0.4,3-1.2,4c-0.8,1-1.8,1.8-3.1,2.2c-1.3,0.5-2.7,0.7-4.3,0.7c-0.8,0-1.5,0-2.1-0.1
			c-0.6-0.1-1.2-0.2-1.8-0.3c-0.6-0.1-1.2-0.3-2-0.5l0.4-4.1c1.6,0.9,3.3,1.4,5.2,1.4c0.6,0,1.2-0.1,1.8-0.3c0.6-0.2,1.1-0.5,1.6-1
			c0.4-0.4,0.6-1,0.7-1.7c0-0.9-0.4-1.5-1-2c-0.7-0.5-1.5-0.9-2.5-1.3c-1-0.4-2-0.8-3-1.3c-1-0.5-1.8-1.2-2.5-2c-0.7-0.9-1-2-1-3.5
			c0-1.7,0.4-3.1,1.2-4.1c0.8-1,1.7-1.8,3-2.2c1.2-0.5,2.5-0.7,3.9-0.7C362.2,56.7,364.1,57,365.7,57.5"/>
	</g>
	<polygon class="st0" points="374.5,80 374.5,57.1 379.1,57.1 379.1,76.4 388,76.4 388,80 	"/>
	<path class="st0" d="M406.6,71.1l-3.3-9.4h-0.1l-3.3,9.4H406.6z M391.8,80l8.9-22.9h5.2l9,22.9h-5.1l-2-5.2h-9.3l-2,5.2H391.8z"/>
	<polygon class="st0" points="420.9,80 420.9,57.1 426.5,57.1 435.2,74.2 435.3,74.2 435.3,57.1 439.7,57.1 439.7,80 434.1,80 
		425.3,62.9 425.3,62.9 425.3,80 	"/>
	<g>
		<path class="st0" d="M448,80V57.1h6.3c2.4,0,4.6,0.3,6.5,0.9c2,0.7,3.6,1.8,4.8,3.5c1.2,1.7,1.8,4,1.9,7c0,3-0.7,5.3-1.9,7
			c-1.2,1.7-2.8,2.8-4.8,3.5c-2,0.7-4.2,1-6.5,0.9H448z M452.6,60.7v15.7h2.6c1.3,0,2.5-0.3,3.7-0.9c1.1-0.6,2.1-1.5,2.8-2.7
			c0.7-1.2,1.1-2.6,1.1-4.2c0-1.7-0.4-3.1-1.1-4.2c-0.7-1.2-1.6-2.1-2.8-2.7c-1.1-0.6-2.4-0.9-3.7-0.9H452.6z"/>
		<path class="st0" d="M487.7,57.5l-0.4,3.8c-1.5-0.6-3-1-4.6-1c-0.5,0-1.1,0.1-1.6,0.3c-0.6,0.2-1,0.5-1.4,1
			c-0.4,0.5-0.6,1.1-0.6,1.9c0,0.8,0.4,1.4,1,1.8c0.7,0.4,1.5,0.8,2.5,1.2c1,0.4,2,0.8,3,1.3c1,0.5,1.8,1.2,2.5,2.1
			c0.7,0.9,1,2.1,1,3.6c0,1.7-0.4,3-1.2,4c-0.8,1-1.8,1.8-3.1,2.2c-1.3,0.5-2.7,0.7-4.3,0.7c-0.8,0-1.5,0-2.1-0.1
			c-0.6-0.1-1.2-0.2-1.8-0.3c-0.6-0.1-1.2-0.3-2-0.5l0.4-4.1c1.6,0.9,3.3,1.4,5.2,1.4c0.6,0,1.2-0.1,1.8-0.3c0.6-0.2,1.1-0.5,1.6-1
			c0.4-0.4,0.7-1,0.7-1.7c0-0.9-0.4-1.5-1-2c-0.7-0.5-1.5-0.9-2.5-1.3c-1-0.4-2-0.8-3-1.3c-1-0.5-1.8-1.2-2.5-2c-0.7-0.9-1-2-1-3.5
			c0-1.7,0.4-3.1,1.2-4.1c0.8-1,1.7-1.8,3-2.2c1.2-0.5,2.5-0.7,3.9-0.7C484.2,56.7,486,57,487.7,57.5"/>
	</g>
</g>
<g>
	<path class="st0" d="M53.6,41.4c0.6,1.4,6.2,13.2,7,15.3c-0.2,0-0.6-0.1-0.7,0c-2.8-4.5-5.3-9.3-8.1-13.8
		C52,42.5,53.1,41.2,53.6,41.4"/>
	<path class="st0" d="M81.1,56.8c-0.2,0.9,2.2,7.5,5.8,5.6c0,0.7-1.1,2.5-2.5,2.5c-4.2,0-4.3-6.1-4.2-7
		C80.2,57.4,80.5,56.6,81.1,56.8"/>
	<path class="st0" d="M63.5,70.7c-1.5-1.8-3.5-2.2-5.3-1.2C58,69.7,57.8,70,57.4,70c-0.2-1.2,1.2-2.6,2-3c2.7-0.9,5.1,0.1,5,3.9
		C64.2,71.4,63.6,71.3,63.5,70.7"/>
	<path class="st0" d="M39.7,67.6c-0.4,0.4-1,0.7-1.8,0.9c0.1-0.3,0.3-1.1-0.4-1.6c-0.1,0.7-0.6,0.9-1,1.1c-0.1,0.2,0,0.3,0,0.4
		c-0.4-0.3-0.4-0.3-0.6-0.8c0.2-0.1,0.3-0.3,0.3-0.5c0.1-1-0.9-1.4-1.7-1.1c0-0.1-0.2-0.3-0.2-0.4c0.5-0.4,1.4-0.5,2-0.3
		C37.8,65.6,38.7,67.2,39.7,67.6"/>
	<path class="st0" d="M41,68.3c0.2,0.3,0.2,0.3,0.1,0.5c0,0.2-0.3,0.7-0.4,0.9c-0.6,0.8-1.8,1.5-2.9,1.1c-0.6-0.2-2.1-0.6-1.5-1.6
		c1.6,0.7,2.9-0.6,3.9-1.3C40.6,68.1,40.8,68.2,41,68.3"/>
	<path class="st0" d="M61.8,73.7c-0.2,1.6-3.6,1.6-4.6,0.6c0,0.5-0.3,0.9-0.5,1.3c-0.4,0.5-1.3,1.4-2.2,1.4
		c-3.4-0.1-4.7-4.5-3.8-5.1c0.7,2.6,3,2.7,3.9,2.2c0.9-0.5,0.9-2.1,1.1-3.2c0.5,0,1.1-0.2,1.6-0.1c0.1,0.4,0.2,1.1,0.4,1.5
		c0.3,0.7,1,1.5,2.1,1.7C60.8,74.1,61.1,73.8,61.8,73.7"/>
	<path class="st0" d="M57.6,76c0.7,0.3,0.5,1.2,1.5,1.1c0.8,0,0.7-0.8,1.1-1.4c1.1,0.9-0.2,3.2-1.3,3.3c-0.2,0-0.7,0-1-0.2
		C57.2,78.3,56.8,77,57.6,76"/>
	<path class="st0" d="M68,82c0,0.4-0.2,0.9-0.2,1.5c-0.2,4.5,2.3,4.6,3.7,6.3c0.6,0.7,2.5,3,2.5,4.7c0,0.7,0,2.6-0.9,2.6
		c-0.2,0,0-0.7-1.1-2C61.8,86.9,67,81.1,68,82"/>
	<path class="st0" d="M63.2,87.4c-0.5,0-1.4-1.2-2.5-0.6c-0.3,0.2-0.3,0.6-0.6,0.8c-0.3,0-0.3-0.3-0.5-0.4c0.1-1.3,1-2.4,2.2-2.6
		c1-0.2,1.3,1.2,1.5,2C63.3,86.9,63.4,87.3,63.2,87.4"/>
	<path class="st0" d="M59.9,88c-0.1,2.3,1.8,2,2.3,1.4c0.3-0.4,0.5-0.6,0.7-0.5c0.4,1.5-0.6,2.1-1,2.5c-0.5,0.5-2.4,1-3-1.4
		C58.8,89.2,59.2,87.9,59.9,88"/>
	<path class="st0" d="M59.5,93.9c0.6,0.4,1.2,0.6,1.9,0.4c0.3-0.1,0.5-0.5,0.9-0.4c0.4,0.9-0.7,2-1.5,2.2c-1.1,0.2-2.3-0.7-2.4-1.7
		c0-0.4-0.1-1.4,0.4-1.4C59.3,92.9,59.3,93.5,59.5,93.9"/>
	<path class="st0" d="M87.3,99.2c-0.9-1.2-3.7-2.7-5.1-3.6c-1.8-1.1-3.6-2-4.1-4c2.1,1.1,4.1,1.8,4.9,4c1.2,0.8,0.7-2.5,0.5-3.1
		c-0.6-2-1.4-2.9-2.9-4c-1-0.7-5.2-3.9-5.9-4.3c-1.7-1.1-1.9-1.9-2-1.9c-1.1,0-3.2,3.5,2.8,7.8c0.6,0.4,1.2,0.8,1.8,1.1
		c0,0-0.1,0-0.1,0c0.1,5.2,0.1,7,6.7,10.4c3.4,2.2,2.2,4.3,3,5C88.8,106.2,89.7,101.6,87.3,99.2"/>
	<path class="st0" d="M50.3,96.7c-1.6-0.6-2.2,0.7-1.2,2.2c0.6,0.7,2.6,3.5-0.7,3.7c2.2-2.8-4.9-4.1-1.2-6.7
		c1.1-0.6,2.2-0.2,2.6,0.1C50.1,96.1,50.5,96.4,50.3,96.7"/>
	<path class="st0" d="M72.3,99.9c0.2,0.1,0.1,0.4,0.2,0.5c0.6,1.1,2.3,2.7,4,2.8c0.5,0,1.3,0,1.7-0.2c0.1,1-1.2,1.7-1.8,1.9
		c-0.6,0.2-1.3,0.1-2.4-0.1c-1.5-0.3-3.3-1.8-4.7-1c-0.5,0.3-1.3,1-1,2.4c-2,0.4-2-1.8-2-2.7c-3.8,0.3-5.4,9.1-15.5,7.5
		c-1.1-0.2-3.3-0.9-4.2-1.6c-6.9-5.4,0.4-10.2,1.6-7.5c-3.4,1.5-1.5,8.1,7.5,3.8c0.9,1.3-0.2,2.7-1.2,3.5c3.4,0.1,7.1-5.2,8.1-6.1
		c1.2-1.1,3.9-3,5.8-1.9c0.5-1.7-5.4-3-3.2-6c0.9,2.7,5.8,2.2,6.2,4.8C71.8,99.7,72.1,99.7,72.3,99.9"/>
	<path class="st0" d="M61.5,100.9c0.3,0.2,0.5,0.5,0.6,0.9c0.2,1.1-1.7,1.6-1.8,0.3C61,102.2,61.6,101.5,61.5,100.9"/>
	<path class="st0" d="M70.7,104.3c0.2,1.4,2.3,3.2,3.2,3.1c-0.4-1.2,0.8-2.1,2.4-1.8c1.1,0.2,1.6,1.1,2.4,1.5c1,0.5,2,0.9,3.3-0.1
		c1.1,1.1-0.4,2.9-1.7,3c-1.2,0.1-2.3-0.4-2.8-1.1c-0.5-0.7-0.5-1.4-0.9-2c-0.6-0.4-2.1-0.6-2.2,0.4c0.1,0.7,1.2,0.2,1.8,0
		c0.2,1.4-1.5,3-3,3c-0.3,0-0.7,0-1-0.1c-1.3-0.5-2.6-1.6-2.7-3.3C69.5,105.7,69.7,104.2,70.7,104.3"/>
	<path class="st0" d="M59,103.2c0.4,0.2,0.5,0.9,0.5,1.2c0,0.4-0.6,1.3-1,1.4c-0.7,0.1-1-0.4-1.2-1.2
		C58.3,104.5,58.9,104.1,59,103.2"/>
	<path class="st0" d="M69,107c0,0.7,0,1.3,0.4,1.9c0.7,1.1,1.9,2.6,5,1.8c-0.3,1.6-2.2,2.4-3.5,2.1c-2.7-0.7-2.7-2.7-2.7-3.7
		C68.2,108.4,68.3,107.1,69,107"/>
	<path class="st0" d="M52.2,44.9C49,49.9,47,42.5,48.5,42C48.5,42.1,49.6,45.9,52.2,44.9"/>
	<path class="st0" d="M34,82.8c0.6-0.1,0.2-2,0.7-2.4c0.7-0.4,2-0.9,2.4,0.3c0.7-0.1,1.5-0.5,1.8-0.8c1.8-2.3-0.5-4-0.9-4.1
		c-0.5-0.3-2-0.7-2.2,0c0.2,0.3,0.7,0.1,1.1,0.2c0.4,0.1,0.9,0.4,1,0.7c0.3,0.4,0.2,1.1-0.4,1.1c-0.3,0-1.2-0.4-2-0.4
		c-1.6,0-4.2,1.1-4.8-0.2c-0.4-0.9,1-6,1.7-8.1c0.1-0.3,0.6-1.1,0.1-1.2c0,0,0,0-0.1,0c-0.1,0-0.1,0.1-0.2,0.1c-0.4,1-2.7,8.3-3,9.6
		c-0.2,1-0.1,1.9,0.4,2.4c0.5,0.5,1.1,0.5,1.8,0.4c1.2-0.1,1.8,0,2.1,1C33.6,81.7,33.5,82.5,34,82.8"/>
	<path class="st0" d="M59.7,84.1c-0.4,1.1-1.3,0.7-2.4,0.9c-1.1,0.3-1.8,0.6-2.5,1.6c-1.5,2.1-2.6,4.9-8.1,5.9
		c-1.1,0.2-1.9,0.2-2.9,0.7c-6.2,2.6-6.1-1.9-6.3-2.1c-0.6-0.7-0.7,2-0.6,2.3c0.4,0.9,0.5,1.4,2,2c1.3,0.6,3.8,0.5,4.8,0.3
		c3.8-0.5,8.3-1,9.9-1.8c4-2.2,6.6-8.9,6.8-9.9C60.1,84.2,59.9,84.2,59.7,84.1"/>
	<path class="st0" d="M37.5,89.7c0.7-0.8,2.6-1.3,3-2.7c0-0.1,0-0.7-0.2-0.7c-0.3-0.1-0.3,0.3-0.6,0.5c-0.6,0.2-1.3,0.1-2.1,0.1
		c-1.2,0-2.4,0.3-2.4,1.2c0.8,0.7,1.8,0.7,2,2.4C37.4,90.4,37.4,90,37.5,89.7"/>
	<path class="st0" d="M37.5,85.2c0.8,0,1.5,0.4,2.1,0.3c0.5,0,1.8-0.3,2-1.4c-1.6,0.1-2.7-0.1-3.9-0.6c-0.5-0.2-1.1-0.7-1.6-0.6
		c-0.6,0.3-1.4,1-2.5,1.1c0.2,0.7,0.7,1.5,1.5,1.6C35.8,85.8,36.6,85.3,37.5,85.2"/>
	<path class="st0" d="M53.6,40.3c-0.9-0.8-1.4-2.7-2.3-3.5c-0.5,0.3-4.5,2.4-5,2.7c-1,0.5-8.2,4-9.8,5.2c-0.2,0.2,0.2,0.3,0.4,0.3
		c2.3-1.3,7.9-3.2,10.9-4.6c0.1,0,0.3,0.7,0.5,0.7c0.9-0.4,1.6-0.4,2.6-0.7c0.4,0.3,0.5,1,0.9,1.3C52.5,40.9,52.9,40.7,53.6,40.3"/>
	<path class="st0" d="M77.6,30.1c0.8,0.2,1.9-1.7,2-3.1c0-2.1-2.5-4.1-5.6-1.9C74.1,25.2,78.8,23.8,77.6,30.1"/>
	<path class="st0" d="M78.4,50.1c1.6-3.5,0-8.1-2.2-9.8c-0.6-0.6-2.8-2.1-3.6-1.2c0.1,0.3,3.2,1.4,3.5,3.9c-2.6-2.7-10.1-3-11.8-6.2
		c-0.6,0.5,0.3,2.1,1.7,3.6c-2.9-0.3-5.7-4.4-5.4-8.5c-0.1-0.1-0.2,0.1-0.4,0.1c-0.4,0.9-0.6,5.8,0.9,7.4c-0.4,0-0.5,0.3-1.2,0.1
		c-0.4,3.2,6.7,3.8,8.2,1.6C70.5,43.4,78.3,43.2,78.4,50.1"/>
	<path class="st0" d="M24.1,50.5c11.7-7,36.3-19.4,36.7-19.5c3-7.1,11.3-7.7,13.5-7.4c0.5,0.1,1.2,0.3,1.2,0
		c0-0.6-10.5-3.6-15.5,4.6c-0.3,0.4-0.4,0.9-0.8,1.2c-3.5,1.9-22.5,12.7-32.2,18.3c-6.2,3.6-8.2,6.2-8.1,6.4c0.5,0,0.8-0.4,1.2-0.7
		C21.1,52.6,22.6,51.4,24.1,50.5"/>
	<path class="st0" d="M33.9,65.5c0.3-0.1,0.5-0.4,0.7-0.6c2.2-1.8,3.7-0.2,5,0.9c1.1,0.9,1.2,1.2,2.6,1.7c1.8,0.6,4.4-0.7,6.5-0.2
		c0.2,0.1,0.5,0.1,0.5-0.5c0-0.2,0-0.3-0.5-0.5c-3.9-0.9-7.5-4.4-11.1-4.6c-1.7-0.1-2.4,0.8-3.6,1.3c-0.8,0.3-1.7,0.4-2.6-0.4
		c-0.1-0.1-0.2-0.3-0.3-0.5c-0.5,0.2-0.5,0.7-0.3,1.2C30.9,64,32.1,66.1,33.9,65.5"/>
	<path class="st0" d="M108.7,80.4c0.4,0.8-0.4,4.1-2.3,2.7c-2.1-1.9,2.7-6.5-1.9-10.8c-2.2-2.6,0.6-6.1,1.4-8.3
		c2.6-6.4-1.7-10-5.1-12.5c-4.7-2.9-9.2-4.1-14-4.6c-0.1,0-2.5-0.3-3.3-0.9c-1.8-1.5,0.2-3.8-2.8-6c2.7-0.1,3.5,2,2.8-0.1
		c-1.2-1.7-4.4-1.9-4.1-4.7c1,2.1,6.1,2.7,5.4,6.2c4.6-7.3-6.9-5.8-4.2-10.5c-5.6,2.5-2.7,5.8-2.2,6.8c-1.1-0.5-1.4-1.3-3.8,0
		c1,0.2,2.6,1.5,3.6,3c1.5,2.1,0.9,4.4,2.9,6.1c0.8,0.7,2.3,1.1,4,1.1c-0.9,0.6-1.4,3.2,1.7,5.8c4.5,3.7,3.7,6.4,3.5,7.8
		c0.8-0.9,2.3-2.3,2.3-4.3c0-3-2.5-3.2-2.7-5.4c1.4,1.3,2.8,0.7,5.4,3.3c-0.2-2.8-2.7-3.9-5-4.8c6.1,0.5,10.6,5.4,10.9,6.9
		c3.2,5.8-4.3,11.5-2.4,15.5c1.3,2.7,3.6,2.9,3.5,6.3c-0.4-2.4-3.4-1.5-4.8-5.4c-2.1,5.9,4.8,6,5.7,11.6
		C106.1,90.4,113.1,84.8,108.7,80.4"/>
	<path class="st0" d="M66.8,70.7c1.1-2.9-2.1-4.8-2.8-4.3c3,2.9,0.3,4.8,0.8,8.8c-0.4,1.3-1.8,1-2.6,1.7c-0.8,0.6-0.8,1.8-1,3.1
		c-0.4,1.6-2.5,1.6-3.4,0c-0.1,0.6,0.1,1.5,0.4,2.2c0.4,0.9,1.7,1.1,3,0.8c1.3-0.3,1.6-2.2,2.3-3.4c1.3-1.5,2.3-1.3,2.8-2.3
		C67.3,75.4,66.3,72.4,66.8,70.7"/>
	<path class="st0" d="M94.7,78.6c-4.7-3.3,2.7-9.2,4.2-14.6c0.5-1.7,0.5-4.7-1.3-6.1c-0.1,1.1,0.1,3.5-2.5,5.9
		c1.5-3.5,1.3-5.9,0-7.6c-0.3-0.6-0.6-1-1.2-1.3c3.3,8.8-11.6,12.1-7.4,17.1c-3.1,0.4-3.7,8.6-10.7,5.5c-11.2-6.8,5.2-17.5,2.4-22.7
		c-1.1-2.1-2.8-2.4-2.4-4.2c-0.4,0.2-2,1,0.3,3.9c1.1,1.7,0.8,2.5-0.2,4.1c-0.3-2.1-3.5-1.4-3-4.4c-2.4,2,0.7,3.7,2.1,6.2
		c-3.2-1-13.7-5.6-16.5-24.6C58.1,36,58.2,49,66,58c-1.2-0.5-8.7-0.9-10.2,2.3c1.3,3.4,13-3,14.7,8c-1.2,0-0.6-1.7-2.7-3.5
		c-5.6-4.6-11.2,3-15.5-5.9c-0.3-1.8-1.7-2.1-1.9-2.1c-0.5,0.7,1,4.3,0.1,3.8c-1.8-0.9-6.9-2.7-7.7-3c-1.5-0.5-21.4-7.1-23.4-2.1
		c0,0.9,8.2,3.6,11.7,5.3c0.6-1.3,2.7-1.3,4-1.2c1.8,0.1,3.2,0.3,4.6,0.7c2.1,0.5,4.2,1.2,6.2,2C48,63,50,63.9,52,64.3
		c0.2,0.1,0.2,0.2,0.4,0.2c0.3-0.2,0.6-0.2,0.9-0.2c0.5,0.9,1,1.8,0.8,3c1.2-0.4,1.7,1.1,2.1,1.1c0.4,0.1,0.5-0.5,0.9-0.8
		c0.4-0.4,2.1-2.8,4.9-2.9c2.2-0.2,5.8,1,6.3,6.1c0.1,9.2,9.2,10.8,13,8.2c4.7-3.2,2.9-6.1,7-6.6c-4.2,8.3,5,8.2,4.5,11.4
		c-1.6-2.1-6.2-2.5-7-4.9c-0.8,2.9-0.9,4.3,4.5,7.1c6,3,5.2,13.1,13.7,7.6C97.8,92,105.1,86,94.7,78.6"/>
	<path class="st0" d="M62.5,124.7c0-2.3,1.9-4.2,4.2-4.2c2.3,0,4.2,1.9,4.2,4.2c0,2.3-1.9,4.2-4.2,4.2
		C64.4,129,62.5,127.1,62.5,124.7 M69.8,122.4c-0.4,0-1,0.4-1,0.8c0,0.3,0.4,0.6,0.7,0.6c0.3,0,0.9-0.5,0.9-0.8
		C70.4,122.7,70.2,122.4,69.8,122.4 M66.9,121c-0.3,0-0.6,0.5-0.6,0.8c0,0.4-0.3,0.9,0.7,0.8c0.6,0,0.6-0.4,0.6-0.7
		C67.6,121.6,67.2,121,66.9,121 M64.9,122.7c-0.2-0.1-0.3-0.1-0.4-0.1c-0.7,0-1.2,0.5-1.2,1.2c0,0.3,0.3,0.4,0.6,0.4
		c0.6,0,1.2-0.5,1.2-1.1C65,122.9,65,122.8,64.9,122.7 M69.8,125.3c-0.5,0-1.1,0.2-1.1,0.7c0,0.3,0.3,0.6,0.6,0.6c0.5,0,1-0.3,1-0.8
		C70.4,125.5,70.1,125.3,69.8,125.3 M66.2,124.7c0.1,0.4,0.4,0.6,1,0.5c0.6-0.2,0.5-0.6,0.4-1.1c-0.1-0.4-0.4-0.6-0.8-0.6
		C66.3,123.5,66,124.2,66.2,124.7 M64.5,125.2c-0.2-0.2-0.3-0.3-0.5-0.3c-0.3,0-0.5,0.4-0.5,0.7c0,0.7,0.6,1.4,1.2,1.4
		c0.3,0,0.7-0.3,0.7-0.6C65.3,125.9,64.8,125.6,64.5,125.2 M68,127.5c-0.2-0.3-0.4-0.6-0.8-0.6c-0.4,0-0.7,0.3-0.7,0.6
		c0,0.5,0.5,1,1.1,1C68,128.4,68.1,127.8,68,127.5"/>
	<path class="st0" d="M58.6,119c-0.6-0.5-1.9-1.3-3.4-1.6c-3.5-0.9-5.6,0.5-6.1,2.6c-0.4,1.7,0.3,3.1,2.2,4.4c1.4,1,2,1.4,1.8,2
		c-0.1,0.5-0.8,0.8-1.8,0.5c-1.2-0.3-2-0.9-2.5-1.2l-1.3,2.4c0.7,0.5,1.7,1.1,3.1,1.4c3.1,0.8,5.3-0.4,5.8-2.6
		c0.5-1.8-0.6-3.3-2.5-4.5c-1.3-0.8-1.7-1.3-1.6-1.9c0.2-0.6,0.8-0.9,1.9-0.6c1.2,0.3,2.3,1,3,1.5L58.6,119z"/>
	<polygon class="st0" points="43.9,127.3 48.5,115.7 45.5,114.5 40.8,126 	"/>
	<path class="st0" d="M30.8,114.8l4.2,2.5l1.3-2.2l-1.4-0.9l1.1-1.8c0.2,0,0.6,0.2,1,0.4c1.8,1.1,2.4,3,1.2,5
		c-1.3,2.2-3.3,2.2-5.1,1.2c-1.2-0.7-1.8-1.4-2.3-2l-1.9,1.9c0.4,0.6,1.3,1.5,2.8,2.4c3.5,2.1,7.4,1.9,9.6-1.8
		c0.9-1.5,1.2-3.2,0.8-4.8c-0.4-1.5-1.5-2.9-3.6-4.1c-1.4-0.8-3.1-1.4-4.1-1.6L30.8,114.8z"/>
	<polygon class="st0" points="25.4,116.7 33.4,107.1 30.8,105 22.8,114.6 	"/>
	<polygon class="st0" points="28.9,103.3 23.7,97 21.5,98.8 24.6,102.5 17.2,108.7 19.3,111.3 	"/>
	<polygon class="st0" points="22.8,95.8 18.6,88.8 16.2,90.3 18.7,94.4 10.4,99.4 12.1,102.2 	"/>
	<path class="st0" d="M6.2,91.6l6.5-2.1c3.8-1.2,5-3.5,4-6.8c-1.1-3.3-3.5-4.6-7.2-3.4l-6.5,2.1l1,3.2l6.7-2.2c1.9-0.6,3-0.3,3.4,1
		c0.4,1.3-0.4,2.2-2.2,2.8l-6.7,2.2L6.2,91.6z"/>
	<path class="st0" d="M13.6,65.6l-0.2-3.2L0.9,63.9l0.3,4.4L4.6,69c1.3,0.3,3.1,0.6,4.7,0.8l0,0.1c-1.5,0.4-3.1,0.9-4.5,1.3
		l-3.3,1.1l0.3,4.5l12.5-0.1l-0.2-3.1l-4.5,0.1c-1.4,0-3.3,0.1-5,0.2v0c1.7-0.4,3.5-0.9,4.8-1.3l4.2-1.3l-0.2-2.6l-4.4-0.9
		c-1.4-0.3-3.3-0.7-5-1l0,0c1.9-0.1,3.6-0.3,5-0.4L13.6,65.6z"/>
	<path class="st0" d="M3,50.6l6.5,2.1c3.8,1.2,6.1,0.1,7.2-3.1c1.1-3.3-0.2-5.8-3.8-7l-6.5-2.1l-1,3.2l6.7,2.2
		c1.9,0.6,2.6,1.5,2.2,2.8c-0.4,1.3-1.6,1.6-3.4,1L4,47.4L3,50.6z"/>
	<path class="st0" d="M20.8,39.7L18.2,38c-1.7-1.1-3.3-2.1-4.8-2.9l0-0.1c1.6,0.3,3.4,0.6,4.9,0.7l4.6,0.5l1.9-3l-10.5-6.8L12.8,29
		l2.5,1.6c1.6,1,3.1,1.9,4.5,2.7l0,0c-1.5-0.3-3.3-0.6-4.7-0.7l-4.3-0.4l-2.1,3.3l10.5,6.8L20.8,39.7z"/>
	
		<rect x="16.8" y="24.7" transform="matrix(-0.7314 -0.6819 0.6819 -0.7314 21.8206 61.3658)" class="st0" width="12.5" height="3.3"/>
	<path class="st0" d="M35.3,23.6l-4.7-12.3l-2.8,2.2l2.1,4.7c0.6,1.3,1.2,2.6,1.9,4l0,0c-1.2-1.1-2.4-1.9-3.6-2.7l-4.1-3l-2.8,2.3
		l10.9,7.2L35.3,23.6z"/>
	<polygon class="st0" points="43.3,10.3 39.3,12.2 38.4,10.4 42.6,8.4 41.4,5.9 34.2,9.5 39.6,20.7 47.1,17 45.9,14.5 41.4,16.7 
		40.4,14.7 44.5,12.7 	"/>
	<path class="st0" d="M49.2,5.9c0.2-0.1,0.5-0.2,1.1-0.4c1.1-0.3,1.8,0.1,2,1c0.2,0.9-0.3,1.7-1.5,2L50,8.7L49.2,5.9z M48.6,16.4
		l3.2-0.9L50.6,11l0.5-0.1c1-0.3,1.5-0.1,2.2,1.3c0.7,1.4,1.3,2.3,1.6,2.6l3.3-0.9c-0.4-0.4-1.2-2-1.9-3.2c-0.6-1-1.2-1.6-2.1-1.7
		l0-0.1c0.8-0.6,1.7-2,1.3-3.5c-0.3-1.2-1-1.9-1.9-2.3c-1.1-0.4-2.5-0.3-4.3,0.2c-1.6,0.4-2.9,0.9-3.8,1.3L48.6,16.4z"/>
	<path class="st0" d="M60.1,13.1c0.7,0.3,2.2,0.7,3.7,0.6c3.6-0.1,5.2-2,5.2-4.2c-0.1-1.7-1.1-2.9-3.4-3.6c-1.6-0.5-2.3-0.8-2.3-1.4
		c0-0.5,0.5-0.9,1.5-1c1.2,0,2.2,0.3,2.7,0.5l0.6-2.7c-0.8-0.3-1.9-0.6-3.4-0.5c-3.2,0.1-5,1.9-4.9,4.1c0.1,1.9,1.5,3,3.6,3.6
		c1.4,0.4,2,0.8,2,1.4c0,0.6-0.5,1-1.7,1.1c-1.2,0-2.5-0.3-3.3-0.7L60.1,13.1z"/>
	<rect x="67.2" y="6" transform="matrix(0.1218 -0.9926 0.9926 0.1218 56.8153 79.6046)" class="st0" width="12.5" height="3.3"/>
	<polygon class="st0" points="78.4,14.8 81.7,15.7 84.2,6.4 87.3,7.2 88,4.5 78.6,2 77.9,4.7 80.9,5.5 	"/>
	<path class="st0" d="M90.7,13.4l1.5-1.8c0.5-0.6,1.1-1.4,1.6-2l0,0c-0.1,0.7-0.4,1.8-0.5,2.5l-0.5,2.3L90.7,13.4z M92.1,16.8
		l-0.6,2.9l3.2,1.6L97,8.5l-4-2l-8.7,9.6l3.1,1.5l1.9-2.3L92.1,16.8z"/>
	<polygon class="st0" points="96.7,23 99.4,25 105.2,17.3 107.8,19.2 109.5,17 101.7,11.1 100,13.4 102.5,15.3 	"/>
	<rect x="102.9" y="23.9" transform="matrix(0.7314 -0.682 0.682 0.7314 11.8605 81.3062)" class="st0" width="12.5" height="3.3"/>
	<path class="st0" d="M108.5,33.3c0.1,0.8,0.5,2.2,1.4,3.5c2,3.1,4.4,3.5,6.2,2.3c1.5-0.9,1.9-2.4,1.4-4.8c-0.4-1.6-0.5-2.3,0-2.7
		c0.5-0.3,1.1,0,1.6,0.8c0.7,1,0.9,2,1,2.6l2.6-0.9c-0.1-0.9-0.5-1.9-1.3-3.2c-1.7-2.6-4.1-3.3-6-2.1c-1.6,1-1.8,2.8-1.2,5
		c0.4,1.4,0.4,2.1-0.1,2.4c-0.5,0.3-1.2,0.1-1.8-0.9c-0.7-1-1-2.3-1.1-3.1L108.5,33.3z"/>
	<rect x="116.3" y="46.7" transform="matrix(0.9511 -0.309 0.309 0.9511 -8.9524 40.2502)" class="st0" width="12.5" height="3.3"/>
	<path class="st0" d="M118.5,54.3c-0.3,0.8-0.5,2.3-0.2,3.7c0.5,3.6,2.6,5,4.7,4.7c1.7-0.2,2.8-1.4,3.3-3.7c0.4-1.6,0.5-2.3,1.1-2.4
		c0.5-0.1,1,0.4,1.1,1.4c0.2,1.2,0,2.2-0.2,2.8l2.7,0.3c0.2-0.9,0.4-2,0.2-3.4c-0.4-3.1-2.4-4.7-4.6-4.4c-1.8,0.3-2.8,1.8-3.2,4
		c-0.3,1.5-0.6,2.1-1.1,2.2c-0.6,0.1-1.1-0.4-1.3-1.5c-0.2-1.2,0-2.5,0.3-3.3L118.5,54.3z"/>
	<polygon class="st0" points="119.2,65.5 118.6,73.6 121.4,73.8 121.8,69 131.4,69.7 131.7,66.3 	"/>
	<path class="st0" d="M122.8,79.8l2,1.1c0.6,0.4,1.6,0.8,2.2,1.2l0,0c-0.8,0-1.8,0-2.5,0l-2.3,0L122.8,79.8z M119.8,81.8l-3,0
		l-0.9,3.5l13-0.4l1.2-4.3l-11.1-6.7l-0.9,3.3l2.6,1.4L119.8,81.8z"/>
	<path class="st0" d="M113.8,89.1l2.7,1.4c1.8,0.9,3.5,1.8,5,2.5l0,0.1c-1.6-0.2-3.5-0.3-5-0.3l-4.7-0.1l-1.7,3.1l11,5.9l1.4-2.7
		l-2.6-1.4c-1.6-0.9-3.2-1.6-4.8-2.2l0,0c1.6,0.2,3.4,0.3,4.8,0.3l4.3,0l1.9-3.5l-11-5.9L113.8,89.1z"/>
	<path class="st0" d="M113.7,107.2c-0.1,0.2-0.3,0.4-0.6,0.8c-1.4,1.5-3.1,1.8-5,0.1c-2.1-1.9-1.8-3.9-0.3-5.5
		c0.2-0.2,0.4-0.4,0.5-0.5L113.7,107.2z M108.8,98c-0.5,0.4-1.3,1.1-2.4,2.3c-1.7,1.8-2.7,3.6-2.9,5.3c-0.1,1.5,0.4,3.4,2.3,5.1
		c1.7,1.6,3.5,2,5.1,1.7c1.5-0.3,2.7-1.2,4.4-2.9c1-1.1,1.9-2.2,2.5-3.1L108.8,98z"/>
	
		<rect x="95.8" y="111.3" transform="matrix(0.6018 0.7986 -0.7986 0.6018 130.8759 -36.4898)" class="st0" width="12.5" height="3.3"/>
	<path class="st0" d="M93.7,117.3l0.5,2.2c0.1,0.7,0.4,1.7,0.6,2.5l0,0c-0.5-0.6-1.2-1.4-1.6-1.9l-1.5-1.8L93.7,117.3z M90.2,116.3
		l-2-2.2l-3.2,1.6l8.8,9.6l4-2l-2.2-12.8l-3.1,1.5l0.6,2.9L90.2,116.3z"/>
	<polygon class="st0" points="77.1,125.7 81.5,124.6 82,126.6 77.3,127.7 78,130.4 85.9,128.4 82.8,116.3 74.7,118.4 75.4,121 
		80.3,119.8 80.8,122 76.5,123.1 	"/>
	<path class="st0" d="M93.6,35.9c1.7-0.9,6.4-2.3,9.9-1.2c2.7,0.3,4.5,5.7,4.6,6.4c0.3,2.2,0,4.3-4,3.1c-0.5-0.1-2.3-1.4-9.1-1
		c13.3,1.2,12.7,6.1,13,7.5c0.3,3-0.5,7.1-0.7,6c-1.2-10-15.3-11.8-16.1-11.8c-0.8-0.1-1.5-2.3,0.1-3.1c0.6-0.3,1.8-0.6,2.6-0.8
		c0.3-0.1,3.5-0.5,8.4,0.5c1.4,0.3,2-1.5,0.2-3c-5.1-1.7-11.1,1.2-11.8,1.4c-1.1-0.2,5.8-17.6-11.7-16.1c0.5-2.1,11.2-3.8,14.5,4.3
		C94.4,29.8,94.4,34.9,93.6,35.9"/>
	<path class="st0" d="M94.3,94.9c-0.4-0.2-2.1-0.6-3.9-1.3c2.7-5.5-6-8.8-7.1-9.3c-1.1-0.5-2.5-1.1-2.8-2.9
		c-1.5,2.4-1.6,5.2,1.5,6.5c2.6,1.2,6,2.6,7.6,5.3c-2-0.8-4.1-1.7-4.8-2.9c-0.1,0-1.1,5.3,6.4,7.1c3.7,0.9,4.1,3.5,4.1,4.2
		C96.8,101.4,98.4,96.7,94.3,94.9"/>
</g>
</svg>
